<?xml version="1.0" encoding="utf-8"?>
<!-- Generator: Adobe Illustrator 22.1.0, SVG Export Plug-In . SVG Version: 6.00 Build 0)  -->
<svg version="1.1" id="Layer_1" xmlns="http://www.w3.org/2000/svg" xmlns:xlink="http://www.w3.org/1999/xlink" x="0px" y="0px"
	 viewBox="0 0 512 512" style="enable-background:new 0 0 512 512;" xml:space="preserve">
<style type="text/css">
	.st0{fill:#00A9CF;}
	.st1{fill:#FF7C5B;}
</style>
<g>
	<path class="st0" d="M41.2,367.2H2.7v-22.7h104.8v22.7H69v97.6H41.2V367.2z"/>
	<path class="st0" d="M157.1,374.4c5.4-2.3,11.7-3.4,18.8-3.4v24.7c-3-0.2-5-0.3-6-0.3c-7.7,0-13.7,2.1-18,6.4
		c-4.4,4.3-6.5,10.7-6.5,19.3v43.6h-26.8v-92.4h25.6v12.2C147.3,380,151.6,376.7,157.1,374.4z"/>
	<path class="st0" d="M193.2,355.1c-3.1-2.9-4.6-6.4-4.6-10.7c0-4.2,1.5-7.8,4.6-10.7c3.1-2.9,7.1-4.3,12-4.3c4.9,0,8.9,1.4,12,4.1
		s4.6,6.2,4.6,10.3c0,4.5-1.5,8.2-4.6,11.1c-3.1,2.9-7.1,4.4-12,4.4C200.3,359.4,196.3,358,193.2,355.1z M191.9,372.3h26.8v92.4
		h-26.8V372.3z"/>
	<path class="st0" d="M321.7,376.9c7,4,12.6,9.5,16.6,16.7c4,7.2,6,15.5,6,25c0,9.5-2,17.8-6,25c-4,7.2-9.5,12.7-16.6,16.7
		c-7,4-14.9,5.9-23.5,5.9c-11.8,0-21.1-3.7-27.8-11.2v43.1h-26.8V372.3h25.6V383c6.6-8,16.3-12,29-12
		C306.8,370.9,314.6,372.9,321.7,376.9z M310.5,437.2c4.4-4.6,6.6-10.9,6.6-18.6c0-7.8-2.2-14-6.6-18.6c-4.4-4.6-10.1-7-16.9-7
		s-12.5,2.3-16.9,7c-4.4,4.6-6.6,10.9-6.6,18.6c0,7.8,2.2,14,6.6,18.6c4.4,4.6,10.1,7,16.9,7S306.1,441.8,310.5,437.2z"/>
	<path class="st0" d="M363.5,355.1c-3.1-2.9-4.6-6.4-4.6-10.7c0-4.2,1.5-7.8,4.6-10.7c3.1-2.9,7.1-4.3,12-4.3c4.9,0,8.9,1.4,12,4.1
		s4.6,6.2,4.6,10.3c0,4.5-1.5,8.2-4.6,11.1c-3.1,2.9-7.1,4.4-12,4.4C370.6,359.4,366.6,358,363.5,355.1z M362.1,372.3h26.8v92.4
		h-26.8V372.3z"/>
	<path class="st0" d="M431.6,460c-7.7-4.1-13.8-9.7-18.1-16.9c-4.4-7.2-6.5-15.4-6.5-24.6c0-9.2,2.2-17.4,6.5-24.6
		c4.4-7.2,10.4-12.9,18.1-16.9c7.7-4.1,16.5-6.1,26.2-6.1c9.7,0,18.4,2,26.1,6.1c7.7,4.1,13.7,9.7,18,16.9
		c4.4,7.2,6.5,15.4,6.5,24.6c0,9.2-2.2,17.4-6.5,24.6c-4.4,7.2-10.4,12.9-18,16.9c-7.7,4.1-16.4,6.1-26.1,6.1
		C448.1,466.1,439.3,464.1,431.6,460z M474.7,437.2c4.4-4.6,6.6-10.9,6.6-18.6c0-7.8-2.2-14-6.6-18.6c-4.4-4.6-10.1-7-16.9-7
		c-6.9,0-12.5,2.3-17,7c-4.5,4.6-6.7,10.9-6.7,18.6c0,7.8,2.2,14,6.7,18.6c4.5,4.6,10.1,7,17,7C464.7,444.1,470.3,441.8,474.7,437.2
		z"/>
</g>
<g>
	<ellipse transform="matrix(0.3827 -0.9239 0.9239 0.3827 -17.2235 356.2894)" class="st1" cx="258" cy="191" rx="44.6" ry="44.6"/>
	<path class="st1" d="M405.9,163.4c0-81.7-66.2-147.9-147.9-147.9c-81.7,0-147.9,66.2-147.9,147.9c0,71.7,51.1,131.5,118.8,145.1
		c-21.7-39.9-47.7-92.7-47.7-117.4c0-42.4,34.4-76.8,76.8-76.8c42.4,0,76.8,34.4,76.8,76.8c0,24.7-26,77.5-47.7,117.4
		C354.9,294.9,405.9,235.1,405.9,163.4z"/>
</g>
</svg>
