<svg xmlns="http://www.w3.org/2000/svg" width="77.105" height="77.105" viewBox="0 0 77.105 77.105">
  <g id="_003-maps" data-name="003-maps" transform="translate(0)" opacity="0.5">
    <path id="Path_53" data-name="Path 53" d="M77.1,71.458V14.6a5.722,5.722,0,0,0-5.647-5.647H55.472a10.02,10.02,0,0,0-19.925,0H5.647A5.707,5.707,0,0,0,0,14.6V71.458A5.654,5.654,0,0,0,5.647,77.1h65.81A5.944,5.944,0,0,0,77.1,71.458ZM53.2,49.029,74.846,26.683V70.67ZM45.509,2.259a7.756,7.756,0,0,1,7.758,7.735,27.179,27.179,0,0,1-3.147,11.149c-2,3.947-3.9,5.723-4.612,5.723-.681,0-2.55-1.611-4.67-5.934-1.876-3.827-3.089-8.12-3.089-10.938a7.756,7.756,0,0,1,7.758-7.735ZM2.259,14.6A3.368,3.368,0,0,1,2.6,13.126l12.3,12.3L2.259,38.058Zm0,56.857V52.9L22.314,32.843l42,42H5.647a3.392,3.392,0,0,1-3.388-3.388Zm69.2,3.388H67.512l-44.4-44.4a1.13,1.13,0,0,0-1.6,0L2.259,49.7V41.253L17.29,26.221a1.13,1.13,0,0,0,0-1.6L4.2,11.536a3.367,3.367,0,0,1,1.445-.324h6.545L44.808,43.828a1.13,1.13,0,0,0,1.605-.008L60.7,29.253a1.13,1.13,0,0,0-1.613-1.582L45.6,41.424,15.387,11.212H35.547a33.015,33.015,0,0,0,3.265,10.714c3.071,6.264,5.515,7.2,6.7,7.2,2.8,0,5.567-4.868,6.627-6.961a30.89,30.89,0,0,0,3.339-10.952H71.458a3.382,3.382,0,0,1,2.586,1.2L63.563,23.1a1.13,1.13,0,0,0,1.613,1.582l9.669-9.862v8.613L50.808,48.256a1.129,1.129,0,0,0,.013,1.584L74.292,73.311A3.388,3.388,0,0,1,71.458,74.846Z" transform="translate(0 0)" fill="#fff"/>
    <path id="Path_54" data-name="Path 54" d="M272.449,43.584a5.285,5.285,0,1,0-5.274-5.285A5.285,5.285,0,0,0,272.449,43.584Zm0-8.31a3.026,3.026,0,1,1-3.015,3.026A3.024,3.024,0,0,1,272.449,35.274Z" transform="translate(-226.94 -28.043)" fill="#fff"/>
    <path id="Path_55" data-name="Path 55" d="M103.289,292.441a1.13,1.13,0,0,0-2.021,1.008,7.637,7.637,0,0,1,.809,3.438,27.176,27.176,0,0,1-3.147,11.149c-2,3.947-3.9,5.723-4.612,5.723-.68,0-2.55-1.611-4.67-5.934C87.772,304,86.56,299.7,86.56,296.887a7.761,7.761,0,0,1,11-7.028,1.13,1.13,0,0,0,.943-2.053,10.02,10.02,0,0,0-14.2,9.081c0,3.806,1.715,8.659,3.319,11.932,3.071,6.264,5.515,7.2,6.7,7.2,2.8,0,5.567-4.868,6.627-6.961a29.088,29.088,0,0,0,3.39-12.17,9.878,9.878,0,0,0-1.046-4.446Z" transform="translate(-71.606 -243.688)" fill="#fff"/>
    <path id="Path_56" data-name="Path 56" d="M121.071,319.909a5.285,5.285,0,1,0,5.274,5.285A5.285,5.285,0,0,0,121.071,319.909Zm0,8.31a3.026,3.026,0,1,1,3.015-3.026A3.024,3.024,0,0,1,121.071,328.219Z" transform="translate(-98.359 -271.732)" fill="#fff"/>
  </g>
</svg>
